HIERARCHY
ROOT Hips
{
 OFFSET 0.000000 0.000000 0.000000
 CHANNELS 6 Xposition Yposition Zposition Yrotation Xrotation Zrotation
 JOINT Chest
 {
  OFFSET 0.000000 9.588913 -0.003946
  CHANNELS 3 Yrotation Xrotation Zrotation
  JOINT Chest2
  {
   OFFSET 0.000000 9.541882 0.008053
   CHANNELS 3 Yrotation Xrotation Zrotation
   JOINT Chest3
   {
    OFFSET 0.000000 9.501360 0.000000
    CHANNELS 3 Yrotation Xrotation Zrotation
    JOINT Chest4
    {
     OFFSET 0.000000 9.491660 0.000000
     CHANNELS 3 Yrotation Xrotation Zrotation
     JOINT Neck
     {
      OFFSET 0.000000 14.331917 0.000000
      CHANNELS 3 Yrotation Xrotation Zrotation
      JOINT Head
      {
       OFFSET 0.000000 8.884799 0.017034
       CHANNELS 3 Yrotation Xrotation Zrotation
       End Site
       {
        OFFSET 0.000000 16.896195 0.008993
       }
      }
     }
     JOINT RightCollar
     {
      OFFSET -2.923010 9.499495 0.000000
      CHANNELS 3 Yrotation Xrotation Zrotation
      JOINT RightShoulder
      {
       OFFSET -13.795216 0.000000 0.000000
       CHANNELS 3 Yrotation Xrotation Zrotation
       JOINT RightElbow
       {
        OFFSET -30.272209 0.000000 0.000000
        CHANNELS 3 Yrotation Xrotation Zrotation
        JOINT RightWrist
        {
         OFFSET -24.478199 0.000000 0.000000
         CHANNELS 3 Yrotation Xrotation Zrotation
         End Site
         {
          OFFSET -18.090752 0.000000 0.000000
         }
        }
       }
      }
     }
     JOINT LeftCollar
     {
      OFFSET 2.923010 9.499495 0.000000
      CHANNELS 3 Yrotation Xrotation Zrotation
      JOINT LeftShoulder
      {
       OFFSET 13.795216 0.000000 0.000000
       CHANNELS 3 Yrotation Xrotation Zrotation
       JOINT LeftElbow
       {
        OFFSET 30.272209 0.000000 0.000000
        CHANNELS 3 Yrotation Xrotation Zrotation
        JOINT LeftWrist
        {
         OFFSET 24.478199 0.000000 0.000000
         CHANNELS 3 Yrotation Xrotation Zrotation
         End Site
         {
          OFFSET 18.090752 0.000000 0.000000
         }
        }
       }
      }
     }
    }
   }
  }
 }
 JOINT RightHip
 {
  OFFSET -7.826875 0.019532 0.001973
  CHANNELS 3 Yrotation Xrotation Zrotation
  JOINT RightKnee
  {
   OFFSET 0.000000 -40.546152 -0.001885
   CHANNELS 3 Yrotation Xrotation Zrotation
   JOINT RightAnkle
   {
    OFFSET 0.000000 -39.417092 -0.003189
    CHANNELS 3 Yrotation Xrotation Zrotation
    JOINT RightToe
    {
     OFFSET 0.000000 -7.579396 17.243563
     CHANNELS 3 Yrotation Xrotation Zrotation
     End Site
     {
      OFFSET 0.000000 -1.500329 6.694466
     }
    }
   }
  }
 }
 JOINT LeftHip
 {
  OFFSET 7.826875 0.019532 0.001973
  CHANNELS 3 Yrotation Xrotation Zrotation
  JOINT LeftKnee
  {
   OFFSET 0.000000 -40.546152 -0.001885
   CHANNELS 3 Yrotation Xrotation Zrotation
   JOINT LeftAnkle
   {
    OFFSET 0.000000 -39.417092 -0.003189
    CHANNELS 3 Yrotation Xrotation Zrotation
    JOINT LeftToe
    {
     OFFSET 0.000000 -7.579396 17.243563
     CHANNELS 3 Yrotation Xrotation Zrotation
     End Site
     {
      OFFSET 0.000000 -1.500329 6.694466
     }
    }
   }
  }
 }
}
MOTION
Frames: 8
Frame Time: 0.008333
-1.613332 48.898149 -8.647665 6.882759 -23.742542 -1.258152 10.624249 9.475256 4.258356 5.773214 5.540094 1.766764 7.251552 6.894856 2.298125 5.773214 5.540094 1.766764 -0.472186 18.227676 -1.919731 -0.061949 -6.514749 -1.918656 5.969607 -0.989734 -5.446550 3.815301 -16.411653 67.225064 87.272357 4.183170 27.074524 -6.336766 2.082088 -4.437914 2.200775 -2.148107 3.299718 0.035638 -14.860815 -73.496752 -76.950394 -14.354475 -42.249191 8.035691 3.307507 10.741418 36.872765 -59.805722 -13.830720 124.581963 68.386842 147.178253 -1.887617 -24.900603 -5.990212 -0.279290 0.901112 -0.131578 36.825551 -80.646808 40.424346 -139.903502 64.673692 -100.610703 0.421924 -14.182010 -17.464626 -0.151874 -0.825682 -0.066540
-1.610470 48.899127 -8.646898 6.887511 -23.737698 -1.259509 10.624598 9.485891 4.251135 5.776063 5.544679 1.765340 7.255133 6.900592 2.296465 5.776063 5.544679 1.765341 -0.471073 18.227133 -1.925523 -0.059460 -6.515213 -1.925046 5.961115 -0.999641 -5.443757 3.801046 -16.407474 67.204119 87.296247 4.154719 27.081473 -6.334681 2.085688 -4.440739 2.193347 -2.155722 3.293173 0.031077 -14.863577 -73.490544 -76.965912 -14.375495 -42.257328 8.050928 3.310299 10.745912 36.876087 -59.809614 -13.840966 124.583524 68.386129 147.180494 -1.892172 -24.896097 -5.987344 -0.270526 0.899058 -0.129480 36.839667 -80.651640 40.411739 -139.909181 64.676248 -100.622472 0.421083 -14.184856 -17.458288 -0.157821 -0.822691 -0.066836
-1.606390 48.900524 -8.646281 6.891978 -23.730285 -1.259079 10.624680 9.496181 4.242261 5.778048 5.548999 1.764280 7.257636 6.905995 2.295241 5.778048 5.548999 1.764280 -0.468447 18.227074 -1.931394 -0.055356 -6.515139 -1.931868 5.954744 -1.007597 -5.443400 3.783562 -16.405162 67.184534 87.323529 4.127352 27.089962 -6.336412 2.088476 -4.445251 2.187644 -2.163601 3.286068 0.023574 -14.866547 -73.484353 -76.984556 -14.396824 -42.261900 8.066875 3.310373 10.751196 36.885801 -59.814275 -13.857520 124.581112 68.385142 147.180822 -1.903654 -24.891323 -5.985009 -0.258123 0.896488 -0.125277 36.882417 -80.659187 40.372190 -139.922484 64.681957 -100.645339 0.422148 -14.190142 -17.445026 -0.170969 -0.816274 -0.069763
-1.600951 48.902818 -8.645275 6.891584 -23.724397 -1.255886 10.628095 9.508359 4.233073 5.779513 5.552965 1.763974 7.259496 6.910948 2.294948 5.779513 5.552965 1.763974 -0.466466 18.227915 -1.938246 -0.051713 -6.514050 -1.939592 5.951632 -1.012507 -5.446434 3.763558 -16.400747 67.167226 87.355442 4.102319 27.098938 -6.336727 2.090470 -4.451743 2.184672 -2.169368 3.276187 0.011171 -14.870229 -73.476261 -77.006923 -14.417616 -42.261362 8.080257 3.312974 10.755031 36.899302 -59.818119 -13.872695 124.580962 68.384504 147.183552 -1.920576 -24.883594 -5.982967 -0.243718 0.891321 -0.118809 36.941075 -80.667746 40.325146 -139.942950 64.687708 -100.676640 0.423917 -14.197668 -17.428567 -0.186771 -0.807564 -0.072363
-1.593775 48.906100 -8.644228 6.884224 -23.718701 -1.247523 10.636300 9.520078 4.221164 5.780870 5.556684 1.763901 7.261223 6.915589 2.294940 5.780870 5.556684 1.763901 -0.466276 18.229744 -1.944707 -0.050049 -6.511880 -1.946502 5.953473 -1.014953 -5.450300 3.740413 -16.393773 67.153090 87.389562 4.080593 27.105660 -6.336666 2.090478 -4.457329 2.182820 -2.172907 3.264858 -0.000162 -14.874701 -73.463339 -77.030706 -14.438636 -42.261348 8.092220 3.320570 10.760996 36.922843 -59.820380 -13.891303 124.580732 68.385255 147.183278 -1.938019 -24.874537 -5.977341 -0.230542 0.886584 -0.112725 37.029068 -80.677406 40.258702 -139.974097 64.694455 -100.724303 0.432149 -14.207172 -17.404683 -0.210401 -0.795059 -0.076698
-1.585140 48.910209 -8.643893 6.874188 -23.708599 -1.237101 10.645556 9.526681 4.206098 5.781913 5.560284 1.763628 7.262553 6.920086 2.294676 5.781913 5.560284 1.763628 -0.465436 18.233162 -1.949517 -0.048076 -6.507994 -1.951823 5.958804 -1.015819 -5.452954 3.719271 -16.387040 67.141194 87.419058 4.062804 27.102665 -6.334568 2.089684 -4.459731 2.182707 -2.175861 3.253967 -0.003910 -14.878358 -73.444702 -77.059753 -14.459232 -42.268622 8.104860 3.327051 10.766732 36.956679 -59.824100 -13.917714 124.574224 68.387532 147.174823 -1.956735 -24.866338 -5.967173 -0.220347 0.884089 -0.108100 37.150905 -80.691308 40.162930 -140.007749 64.707106 -100.780908 0.442699 -14.215112 -17.374718 -0.240944 -0.777999 -0.082511
-1.575766 48.915390 -8.643864 6.864156 -23.696416 -1.229702 10.654530 9.529068 4.193318 5.782700 5.564520 1.762952 7.263561 6.925385 2.293914 5.782700 5.564520 1.762952 -0.463262 18.237964 -1.952793 -0.045043 -6.502614 -1.955832 5.963379 -1.016084 -5.455047 3.702804 -16.382846 67.131322 87.444729 4.047989 27.092517 -6.329421 2.090527 -4.459278 2.184143 -2.179887 3.244854 -0.002874 -14.879352 -73.424298 -77.096914 -14.477744 -42.279686 8.117192 3.331075 10.768783 36.987518 -59.829869 -13.940887 124.561733 68.390808 147.160831 -1.978022 -24.856942 -5.958849 -0.209727 0.880673 -0.101878 37.267502 -80.708140 40.072602 -140.037694 64.724837 -100.834231 0.448628 -14.216861 -17.348713 -0.269511 -0.761602 -0.086410
-1.565872 48.921782 -8.643742 6.857512 -23.684232 -1.226956 10.661383 9.530067 4.185008 5.783683 5.569333 1.761729 7.264812 6.931414 2.292481 5.783683 5.569333 1.761729 -0.461819 18.243194 -1.954725 -0.043088 -6.496792 -1.958253 5.962858 -1.015374 -5.457504 3.689208 -16.382995 67.124058 87.472080 4.036341 27.083250 -6.326786 2.091116 -4.458752 2.182882 -2.187735 3.238392 -0.007858 -14.874891 -73.406397 -77.139397 -14.492915 -42.281335 8.128262 3.334187 10.770820 37.008450 -59.836294 -13.956886 124.547051 68.393886 147.144637 -1.998840 -24.846186 -5.955360 -0.197443 0.874844 -0.092955 37.361990 -80.723915 40.000885 -140.057534 64.745723 -100.875733 0.448892 -14.212980 -17.330669 -0.289445 -0.746765 -0.087420
